<?xml version="1.0" encoding="UTF-8"?>
<svg xmlns="http://www.w3.org/2000/svg" xmlns:xlink="http://www.w3.org/1999/xlink" width="32px" height="32px" viewBox="0 0 32 32" version="1.1">
<defs>
<filter id="alpha" filterUnits="objectBoundingBox" x="0%" y="0%" width="100%" height="100%">
  <feColorMatrix type="matrix" in="SourceGraphic" values="0 0 0 0 1 0 0 0 0 1 0 0 0 0 1 0 0 0 1 0"/>
</filter>
<mask id="mask0">
  <g filter="url(#alpha)">
<rect x="0" y="0" width="32" height="32" style="fill:rgb(0%,0%,0%);fill-opacity:0.996078;stroke:none;"/>
  </g>
</mask>
<clipPath id="clip1">
  <rect x="0" y="0" width="32" height="32"/>
</clipPath>
<g id="surface5" clip-path="url(#clip1)">
<path style=" stroke:none;fill-rule:evenodd;fill:rgb(32.941176%,68.235294%,100%);fill-opacity:1;" d="M 15.375 1.265625 C 19.929688 1.179688 23.765625 2.777344 26.878906 6.066406 C 29.933594 9.5625 31.152344 13.625 30.535156 18.253906 C 29.851562 22.21875 27.917969 25.417969 24.734375 27.839844 C 21.027344 30.464844 16.945312 31.28125 12.492188 30.292969 C 8.449219 29.238281 5.359375 26.921875 3.226562 23.347656 C 1.324219 19.929688 0.808594 16.3125 1.679688 12.492188 C 2.734375 8.449219 5.050781 5.359375 8.625 3.226562 C 10.722656 2.039062 12.96875 1.386719 15.375 1.265625 Z M 16.546875 8.226562 C 17.921875 8.195312 19.296875 8.191406 20.679688 8.214844 C 22.488281 9.929688 24.300781 11.640625 26.121094 13.347656 C 26.148438 13.898438 26.15625 14.449219 26.148438 15 C 19.375 15 12.601562 15 5.828125 15 C 5.828125 13.988281 5.828125 12.972656 5.828125 11.960938 C 10.625 11.96875 15.425781 11.960938 20.226562 11.933594 C 19 10.695312 17.773438 9.460938 16.546875 8.226562 Z M 5.828125 17.828125 C 12.601562 17.828125 19.375 17.828125 26.148438 17.828125 C 26.148438 18.847656 26.148438 19.871094 26.148438 20.894531 C 21.417969 20.890625 16.6875 20.894531 11.960938 20.90625 C 13.191406 21.847656 14.417969 22.792969 15.640625 23.746094 C 14.207031 23.777344 12.777344 23.78125 11.347656 23.761719 C 9.511719 22.402344 7.679688 21.039062 5.851562 19.667969 C 5.828125 19.054688 5.816406 18.441406 5.828125 17.828125 Z M 5.828125 17.828125 "/>
</g>
</defs>
<g id="surface1">
<use xlink:href="#surface5" mask="url(#mask0)"/>
</g>
</svg>
