<?xml version="1.0" encoding="UTF-8"?>
<svg xmlns="http://www.w3.org/2000/svg" xmlns:xlink="http://www.w3.org/1999/xlink" width="26px" height="26px" viewBox="0 0 26 26" version="1.1">
<defs>
<filter id="alpha" filterUnits="objectBoundingBox" x="0%" y="0%" width="100%" height="100%">
  <feColorMatrix type="matrix" in="SourceGraphic" values="0 0 0 0 1 0 0 0 0 1 0 0 0 0 1 0 0 0 1 0"/>
</filter>
<mask id="mask0">
  <g filter="url(#alpha)">
<rect x="0" y="0" width="26" height="26" style="fill:rgb(0%,0%,0%);fill-opacity:0.996078;stroke:none;"/>
  </g>
</mask>
<clipPath id="clip1">
  <rect x="0" y="0" width="26" height="26"/>
</clipPath>
<g id="surface5" clip-path="url(#clip1)">
<path style=" stroke:none;fill-rule:evenodd;fill:rgb(32.941176%,68.235294%,100%);fill-opacity:1;" d="M 12.492188 1.027344 C 16.191406 0.957031 19.308594 2.257812 21.839844 4.929688 C 24.324219 7.769531 25.3125 11.070312 24.808594 14.832031 C 24.253906 18.054688 22.683594 20.652344 20.097656 22.621094 C 17.082031 24.753906 13.769531 25.417969 10.152344 24.613281 C 6.863281 23.757812 4.355469 21.875 2.621094 18.96875 C 1.078125 16.191406 0.65625 13.253906 1.363281 10.152344 C 2.222656 6.863281 4.101562 4.355469 7.007812 2.621094 C 8.710938 1.65625 10.539062 1.125 12.492188 1.027344 Z M 13.445312 6.683594 C 14.558594 6.660156 15.679688 6.65625 16.800781 6.671875 C 18.273438 8.070312 19.746094 9.457031 21.222656 10.84375 C 21.246094 11.292969 21.25 11.738281 21.246094 12.1875 C 15.742188 12.1875 10.238281 12.1875 4.734375 12.1875 C 4.734375 11.363281 4.734375 10.539062 4.734375 9.71875 C 8.632812 9.726562 12.535156 9.71875 16.433594 9.695312 C 15.4375 8.691406 14.441406 7.6875 13.445312 6.683594 Z M 4.734375 14.484375 C 10.238281 14.484375 15.742188 14.484375 21.246094 14.484375 C 21.246094 15.316406 21.246094 16.144531 21.246094 16.976562 C 17.402344 16.972656 13.558594 16.976562 9.71875 16.988281 C 10.71875 17.75 11.714844 18.519531 12.707031 19.292969 C 11.542969 19.320312 10.382812 19.324219 9.21875 19.304688 C 7.726562 18.203125 6.238281 17.09375 4.753906 15.980469 C 4.734375 15.480469 4.726562 14.984375 4.734375 14.484375 Z M 4.734375 14.484375 "/>
</g>
</defs>
<g id="surface1">
<use xlink:href="#surface5" mask="url(#mask0)"/>
</g>
</svg>
