<?xml version="1.0" encoding="UTF-8"?>
<!DOCTYPE svg PUBLIC "-//W3C//DTD SVG 1.1//EN" "http://www.w3.org/Graphics/SVG/1.1/DTD/svg11.dtd">
<svg xmlns="http://www.w3.org/2000/svg" version="1.1" width="1200px" height="1200px" style="shape-rendering:geometricPrecision; text-rendering:geometricPrecision; image-rendering:optimizeQuality; fill-rule:evenodd; clip-rule:evenodd" xmlns:xlink="http://www.w3.org/1999/xlink">
<g><path style="opacity:0.997" fill="#54aeff" d="M 576.5,47.5 C 747.311,44.1916 891.144,104.192 1008,227.5C 1122.57,358.589 1168.24,510.922 1145,684.5C 1119.42,833.268 1046.92,953.101 927.5,1044C 788.462,1142.41 635.462,1173.07 468.5,1136C 316.845,1096.48 201.012,1009.64 121,875.5C 49.6941,747.359 30.3608,611.692 63,468.5C 102.525,316.845 189.358,201.012 323.5,121C 402.065,76.4441 486.399,51.9441 576.5,47.5 Z M 620.5,308.5 C 671.998,307.335 723.665,307.168 775.5,308C 843.309,372.398 911.309,436.565 979.5,500.5C 980.5,521.156 980.833,541.823 980.5,562.5C 726.5,562.5 472.5,562.5 218.5,562.5C 218.5,524.5 218.5,486.5 218.5,448.5C 398.501,448.833 578.501,448.5 758.5,447.5C 712.452,401.119 666.452,354.785 620.5,308.5 Z M 218.5,668.5 C 472.5,668.5 726.5,668.5 980.5,668.5C 980.5,706.833 980.5,745.167 980.5,783.5C 803.166,783.333 625.833,783.5 448.5,784C 494.643,819.309 540.643,854.809 586.5,890.5C 532.836,891.667 479.17,891.833 425.5,891C 356.655,840.077 287.988,788.91 219.5,737.5C 218.5,714.51 218.167,691.51 218.5,668.5 Z"/></g>
</svg>
